<mxfile host="www.draw.io" modified="2019-11-21T15:09:50.134Z" agent="Mozilla/5.0 (Macintosh; Intel Mac OS X 10_14_6) AppleWebKit/537.36 (KHTML, like Gecko) Chrome/78.0.3904.97 Safari/537.36" etag="TFdSG_rixXRk8btxLZPd" version="12.2.8" type="github" pages="1">
  <diagram id="YnK3i_U2Mr8sEIv5mggc" name="Page-1">
    <mxGraphModel dx="932" dy="600" grid="1" gridSize="10" guides="1" tooltips="1" connect="1" arrows="1" fold="1" page="1" pageScale="1" pageWidth="826" pageHeight="1169" math="0" shadow="0">
      <root>
        <mxCell id="0"/>
        <mxCell id="1" parent="0"/>
        <mxCell id="U8_NZiNpIGo1ozEpOvGC-3" style="edgeStyle=orthogonalEdgeStyle;rounded=0;orthogonalLoop=1;jettySize=auto;html=1;exitX=1;exitY=0.5;exitDx=0;exitDy=0;entryX=0.5;entryY=1;entryDx=0;entryDy=0;" parent="1" source="U8_NZiNpIGo1ozEpOvGC-1" target="U8_NZiNpIGo1ozEpOvGC-2" edge="1">
          <mxGeometry relative="1" as="geometry"/>
        </mxCell>
        <mxCell id="U8_NZiNpIGo1ozEpOvGC-1" value="" style="shape=mxgraph.bpmn.shape;html=1;verticalLabelPosition=bottom;labelBackgroundColor=#ffffff;verticalAlign=top;align=center;perimeter=rhombusPerimeter;background=gateway;outlineConnect=0;outline=eventNonint;symbol=timer;fillColor=#f8cecc;strokeColor=#b85450;" parent="1" vertex="1">
          <mxGeometry x="180" y="250" width="50" height="50" as="geometry"/>
        </mxCell>
        <mxCell id="U8_NZiNpIGo1ozEpOvGC-2" value="" style="shape=mxgraph.bpmn.shape;html=1;verticalLabelPosition=bottom;labelBackgroundColor=#ffffff;verticalAlign=top;align=center;perimeter=ellipsePerimeter;outlineConnect=0;outline=catching;symbol=message;" parent="1" vertex="1">
          <mxGeometry x="500" y="130" width="50" height="50" as="geometry"/>
        </mxCell>
        <mxCell id="ONFWQH_tyC7sEH_fuJgm-1" value="" style="aspect=fixed;html=1;points=[];align=center;image;fontSize=12;image=img/lib/mscae/Backup.svg;" parent="1" vertex="1">
          <mxGeometry x="180" y="320" width="50" height="42" as="geometry"/>
        </mxCell>
        <mxCell id="ONFWQH_tyC7sEH_fuJgm-2" value="" style="aspect=fixed;html=1;points=[];align=center;image;fontSize=12;image=img/lib/mscae/Mobile_Engagement.svg;" parent="1" vertex="1">
          <mxGeometry x="110" y="85" width="61" height="90" as="geometry"/>
        </mxCell>
        <mxCell id="ONFWQH_tyC7sEH_fuJgm-3" value="" style="aspect=fixed;html=1;points=[];align=center;image;fontSize=12;image=img/lib/mscae/Local_Network_Gateways.svg;" parent="1" vertex="1">
          <mxGeometry x="380" y="380" width="50" height="50" as="geometry"/>
        </mxCell>
        <mxCell id="ONFWQH_tyC7sEH_fuJgm-4" value="" style="aspect=fixed;html=1;points=[];align=center;image;fontSize=12;image=img/lib/mscae/DNS.svg;" parent="1" vertex="1">
          <mxGeometry x="180" y="450" width="50" height="50" as="geometry"/>
        </mxCell>
        <mxCell id="_1RzZT5slGcypiXwWSSF-1" value="" style="html=1;points=[];perimeter=orthogonalPerimeter;labelBackgroundColor=none;fontFamily=Georgia;" vertex="1" parent="1">
          <mxGeometry x="331" y="170" width="10" height="80" as="geometry"/>
        </mxCell>
        <mxCell id="_1RzZT5slGcypiXwWSSF-2" value="dispatch" style="html=1;verticalAlign=bottom;startArrow=oval;endArrow=block;startSize=8;fontFamily=Georgia;" edge="1" target="_1RzZT5slGcypiXwWSSF-1" parent="1">
          <mxGeometry relative="1" as="geometry">
            <mxPoint x="271" y="170" as="sourcePoint"/>
          </mxGeometry>
        </mxCell>
      </root>
    </mxGraphModel>
  </diagram>
</mxfile>
